<svg xmlns="http://www.w3.org/2000/svg" viewBox="0 0 32 52" height="52" width="32" preserveAspectRatio="xMidYMid"><path d="M.156 26V0h32v52h-32z" fill="#fefefe"/><path d="M8.374 50.393c-1.805-.92-4.28-3.073-5.5-4.783C.859 42.784.627 41.11.336 27.298-.024 10.208.838 6.789 6.53 2.73c4.458-3.18 14.796-3.18 19.254 0C31.2 6.595 32.156 10.085 32.156 26c0 15.875-.96 19.412-6.308 23.22-4.07 2.897-12.927 3.492-17.474 1.173zm15.015-3.05c5.157-2.598 6.267-6.376 6.267-21.343 0-11.02-.325-14.094-1.767-16.733-4.71-8.619-18.825-8.619-23.425 0-1.24 2.322-1.836 6.337-2.117 14.253-.589 16.541 1.537 22.24 9.309 24.95 4.187 1.46 7.164 1.174 11.733-1.127zM11.868 38.56c-5.609-6.71-4.91-9.082.99-3.364l3.298 3.196 3.297-3.196c3.45-3.344 4.703-3.913 4.703-2.136 0 1.158-7.068 9.94-8 9.94-.317 0-2.247-1.998-4.288-4.44zM15.156 32c0-1.65.45-3 1-3s1 1.35 1 3-.45 3-1 3-1-1.35-1-3zm0-10c0-1.65.45-3 1-3s1 1.35 1 3-.45 3-1 3-1-1.35-1-3zm0-10c0-1.65.45-3 1-3s1 1.35 1 3-.45 3-1 3-1-1.35-1-3z" fill="#d6e8e3"/><path d="M8.077 49.726c-1.855-1.25-4.397-3.792-5.647-5.648C.32 40.948.156 39.638.156 26c0-13.638.165-14.949 2.274-18.078C5.922 2.739 10.668 0 16.156 0c5.488 0 10.233 2.739 13.726 7.922 2.109 3.13 2.274 4.44 2.274 18.078 0 13.638-.165 14.949-2.274 18.078-5.307 7.876-14.837 10.344-21.805 5.648zm15.656-2.368c5.283-3.462 5.923-5.77 5.923-21.358 0-15.805-.603-17.868-6.32-21.62-3.492-2.293-10.869-2.293-14.36 0-5.165 3.39-6.228 6.249-6.651 17.886-.546 15.013.212 19.048 4.355 23.192 1.866 1.866 4.424 3.603 5.684 3.86 3.354.686 8.75-.245 11.369-1.96zM11.657 38c-2.776-2.842-3.595-4.308-2.833-5.07.762-.76 1.976.027 4.202 2.727l3.13 3.798 3.13-3.798c2.226-2.7 3.44-3.488 4.202-2.726.761.761-.058 2.227-2.834 5.07C18.507 40.2 16.483 42 16.156 42c-.327 0-2.351-1.8-4.499-3.999zm3.499-6c0-1.65.45-3 1-3s1 1.35 1 3-.45 3-1 3-1-1.35-1-3zm0-10c0-1.65.45-3 1-3s1 1.35 1 3-.45 3-1 3-1-1.35-1-3zm0-10c0-1.65.45-3 1-3s1 1.35 1 3-.45 3-1 3-1-1.35-1-3z" fill="#b8d8cf"/><path d="M8.077 49.726c-1.855-1.25-4.397-3.792-5.647-5.648C.32 40.948.156 39.638.156 26c0-13.638.165-14.949 2.274-18.078C5.922 2.739 10.668 0 16.156 0c5.488 0 10.233 2.739 13.726 7.922 2.109 3.13 2.274 4.44 2.274 18.078 0 13.638-.165 14.949-2.274 18.078-5.307 7.876-14.837 10.344-21.805 5.648zm15.992-2.474c4.96-3.633 6.084-7.556 6.084-21.252 0-13.842-1.11-17.607-6.32-21.429-3.852-2.825-11.503-2.825-15.354 0-5.51 4.043-6.43 7.444-6.111 22.61.252 11.991.544 14.029 2.359 16.5 4.595 6.255 13.446 7.89 19.342 3.571zM11.744 38.09c-2.351-2.408-3.528-4.379-3.063-5.13.522-.845 1.792-.024 4.115 2.659l3.36 3.881 3.36-3.881c2.322-2.683 3.593-3.504 4.115-2.66.68 1.102-5.883 9.041-7.475 9.041-.327 0-2.312-1.76-4.412-3.91zM15.156 32c0-1.65.45-3 1-3s1 1.35 1 3-.45 3-1 3-1-1.35-1-3zm0-10c0-1.65.45-3 1-3s1 1.35 1 3-.45 3-1 3-1-1.35-1-3zm0-10c0-1.65.45-3 1-3s1 1.35 1 3-.45 3-1 3-1-1.35-1-3z" fill="#99c7ba"/><path d="M9.606 50.649C5.534 48.8 1.38 43.708.613 39.624.271 37.799.14 30.419.323 23.223.684 9.027 1.32 7.206 7.541 2.562c3.872-2.891 13.357-2.891 17.23 0C31.299 7.436 31.656 8.649 31.656 26c0 17.285-.373 18.576-6.737 23.328-3.31 2.47-11.265 3.157-15.313 1.32zm14.463-3.397c4.96-3.633 6.084-7.556 6.084-21.252 0-13.842-1.11-17.607-6.32-21.429-3.852-2.825-11.503-2.825-15.354 0-5.51 4.043-6.43 7.444-6.111 22.61.252 11.991.544 14.029 2.359 16.5 4.595 6.255 13.446 7.89 19.342 3.571zm-12.395-9.234c-4.768-4.883-3.86-6.71.997-2.003l3.485 3.377 3.485-3.377c1.917-1.858 3.8-3.063 4.185-2.678C24.49 34 17.408 42 16.156 42c-.327 0-2.344-1.792-4.482-3.982zM15.156 32c0-1.65.45-3 1-3s1 1.35 1 3-.45 3-1 3-1-1.35-1-3zm0-10c0-1.65.45-3 1-3s1 1.35 1 3-.45 3-1 3-1-1.35-1-3zm0-10c0-1.65.45-3 1-3s1 1.35 1 3-.45 3-1 3-1-1.35-1-3z" fill="#7fbaaa"/><path d="M9.606 50.649C5.534 48.8 1.38 43.708.613 39.624.271 37.799.14 30.419.323 23.223.684 9.027 1.32 7.206 7.541 2.562c3.872-2.891 13.357-2.891 17.23 0C31.299 7.436 31.656 8.649 31.656 26c0 17.285-.373 18.576-6.737 23.328-3.31 2.47-11.265 3.157-15.313 1.32zm13.309-2.644C29.14 44.21 30.148 41.144 30.148 26c0-11.71-.263-13.932-1.987-16.76-5.752-9.433-18.259-9.433-24.01 0C2.426 12.069 2.162 14.29 2.162 26s.264 13.932 1.987 16.76c4.157 6.816 12.406 9.123 18.765 5.245zM11.74 37.827c-4.422-5.165-3.793-6.39.93-1.812l3.486 3.377 3.485-3.377c1.917-1.858 3.714-3.15 3.994-2.87.63.631-6.316 8.855-7.48 8.855-.463 0-2.45-1.878-4.415-4.173zM15.156 32c0-1.1.45-2 1-2s1 .9 1 2-.45 2-1 2-1-.9-1-2zm0-10c0-1.1.45-2 1-2s1 .9 1 2-.45 2-1 2-1-.9-1-2zm0-10c0-1.1.45-2 1-2s1 .9 1 2-.45 2-1 2-1-.9-1-2z" fill="#58a490"/><path d="M9.118 49.75C1.888 46.105.156 41.512.156 26S1.889 5.895 9.118 2.25c5.611-2.83 8.464-2.83 14.076 0 7.229 3.645 8.962 8.238 8.962 23.75 0 11.053-.273 13.117-2.25 17.038C27.484 47.841 21.103 52 16.156 52c-1.417 0-4.584-1.013-7.038-2.25zm16.884-4.13l3.654-3.653V10.033l-3.767-3.766C22.375 2.753 21.722 2.5 16.156 2.5c-5.566 0-6.22.253-9.734 3.767l-3.766 3.766V41.87l3 3.17c3.979 4.203 6.064 5.011 11.846 4.59 4-.292 5.483-.992 8.5-4.008zM11.818 37.5c-4.358-5.213-3.763-5.959 1.04-1.304l3.298 3.196 3.297-3.196c4.803-4.655 5.399-3.91 1.04 1.304-2.068 2.475-4.02 4.5-4.337 4.5-.317 0-2.27-2.025-4.338-4.5zm3.338-5.5c0-1.1.45-2 1-2s1 .9 1 2-.45 2-1 2-1-.9-1-2zm0-10c0-1.1.45-2 1-2s1 .9 1 2-.45 2-1 2-1-.9-1-2zm0-10c0-1.1.45-2 1-2s1 .9 1 2-.45 2-1 2-1-.9-1-2z" fill="#298b70"/><path d="M11.471 50.93c-4.472-1.338-9.066-6.291-10.388-11.2C.438 37.334.11 30.464.31 23.534.699 9.993 2.152 6.187 8.317 2.558 15.35-1.584 25.059.914 29.475 8c1.98 3.178 2.18 4.836 2.18 18 0 12.727-.244 14.906-2 17.82-3.628 6.021-11.514 9.104-18.184 7.11zm12.386-2.89c5.465-3.332 6.299-6.248 6.299-22.04 0-10.773-.365-14.806-1.549-17.094-4.736-9.16-20.166-9.16-24.903 0-2.219 4.292-2.219 29.896 0 34.188 2.17 4.197 7.046 6.899 12.452 6.899 2.703 0 5.778-.78 7.701-1.953zM12.352 37.702c-4.34-4.477-4.077-5.948.304-1.702l3.5 3.392 3.5-3.392c1.925-1.866 3.5-2.942 3.5-2.392 0 .998-6.143 7.392-7.102 7.392-.278 0-1.944-1.484-3.702-3.298zM15.156 32c0-1.1.45-2 1-2s1 .9 1 2-.45 2-1 2-1-.9-1-2zm0-10c0-1.1.45-2 1-2s1 .9 1 2-.45 2-1 2-1-.9-1-2zm0-10c0-1.1.45-2 1-2s1 .9 1 2-.45 2-1 2-1-.9-1-2z" fill="#017555"/></svg>